<svg xmlns="http://www.w3.org/2000/svg" width="24.702" height="25.122" viewBox="0 0 24.702 25.122">
  <g id="グループ_791" data-name="グループ 791" transform="translate(-1050.754 -917.628)">
    <path id="パス_19" data-name="パス 19" d="M177.6,180H167.1a7.1,7.1,0,0,0-7.1,7.1v10.922a7.1,7.1,0,0,0,7.1,7.1h10.5a7.1,7.1,0,0,0,7.1-7.1V187.1A7.1,7.1,0,0,0,177.6,180Zm-15.082,7.1a4.584,4.584,0,0,1,4.579-4.579h10.5a4.584,4.584,0,0,1,4.579,4.579v10.922A4.584,4.584,0,0,1,177.6,202.6H167.1a4.584,4.584,0,0,1-4.579-4.579Z" transform="translate(890.754 737.628)" fill="#fff"/>
    <path id="パス_20" data-name="パス 20" d="M181.453,208.457a6.469,6.469,0,1,0-6.47-6.469A6.476,6.476,0,0,0,181.453,208.457Zm0-10.922A4.453,4.453,0,1,1,177,201.988,4.458,4.458,0,0,1,181.453,197.534Z" transform="translate(881.652 728.202)" fill="#fff"/>
    <path id="パス_21" data-name="パス 21" d="M206.185,194.243a1.45,1.45,0,1,0-1.449-1.45A1.45,1.45,0,0,0,206.185,194.243Z" transform="translate(862.548 730.737)" fill="#fff"/>
  </g>
</svg>
